<?xml version="1.0" encoding="utf-8"?>
<!-- Generator: Adobe Illustrator 25.0.1, SVG Export Plug-In . SVG Version: 6.00 Build 0)  -->
<svg version="1.1" id="Layer_1" xmlns="http://www.w3.org/2000/svg" xmlns:xlink="http://www.w3.org/1999/xlink" x="0px" y="0px"
	 viewBox="0 0 204 204" style="enable-background:new 0 0 204 204;" xml:space="preserve">
<style type="text/css">
	.st0{fill:url(#SVGID_1_);}
	.st1{fill:url(#SVGID_2_);}
	.st2{fill:url(#SVGID_3_);}
	.st3{fill:url(#SVGID_4_);}
	.st4{fill:url(#SVGID_5_);}
	.st5{fill:url(#SVGID_6_);}
	.st6{fill:none;}
	.st7{fill:#FFFFFF;}
	.st8{font-family:'ArtifaktElement-Bold';}
	.st9{font-size:48px;}
</style>
<linearGradient id="SVGID_1_" gradientUnits="userSpaceOnUse" x1="-2083.5981" y1="-1820.0916" x2="-1846.2684" y2="-1820.9633" gradientTransform="matrix(0.2796 -0.9601 -0.9601 -0.2796 -1061.4331 -2290.6008)">
	<stop  offset="0" style="stop-color:#AA367C"/>
	<stop  offset="1" style="stop-color:#4A2FBD"/>
</linearGradient>
<path class="st0" d="M95.1,10.8C94.7,5,99.1-0.1,104.9,0c21.9,0.6,43.2,8.3,60.5,22.1c20.1,16,33.5,38.9,37.4,64.3
	s-1.8,51.3-16.2,72.6c0,0-22.1,32.8-61.1,42.3c-8.3,2-24.4,2.8-25.7,2.7c-1.1-0.1-1.7-0.1-1.9-0.1l1.9,0.1c-0.3,0-0.6,0.1-0.9,0.1
	c-4.7,0.1-10.7-3.7-11-8.5c-0.3-4.4,4.6-7.6,6.9-9.2c1.6-1.1,3.7-2.2,9.3-3.5c3-0.7,6.1-1.3,9.2-1.9c4.2-0.7,8.4-1.6,12.7-2.4
	c6.3-1.2,28.3-9.5,43.3-31.4c17.2-25.1,13.8-51.5,12.8-57.6c-3.1-20.1-13.7-38.3-29.7-51c-13.2-10.5-29.2-16.5-45.8-17.4
	C100.6,20.9,95.6,16.6,95.1,10.8z"/>
<linearGradient id="SVGID_2_" gradientUnits="userSpaceOnUse" x1="221.7" y1="1117.7" x2="221.7" y2="1117.7" gradientTransform="matrix(1 0 0 1 0 -874)">
	<stop  offset="0" style="stop-color:#AA367C"/>
	<stop  offset="1" style="stop-color:#4A2FBD"/>
</linearGradient>
<path class="st1" d="M221.7,243.7"/>
<linearGradient id="SVGID_3_" gradientUnits="userSpaceOnUse" x1="246.5" y1="1050.3" x2="246.5" y2="1050.3" gradientTransform="matrix(1 0 0 1 0 -874)">
	<stop  offset="0" style="stop-color:#AA367C"/>
	<stop  offset="1" style="stop-color:#4A2FBD"/>
</linearGradient>
<path class="st2" d="M246.5,176.3"/>
<linearGradient id="SVGID_4_" gradientUnits="userSpaceOnUse" x1="241.4" y1="1063.6" x2="241.4" y2="1063.6" gradientTransform="matrix(1 0 0 1 0 -874)">
	<stop  offset="0" style="stop-color:#AA367C"/>
	<stop  offset="1" style="stop-color:#4A2FBD"/>
</linearGradient>
<path class="st3" d="M241.4,189.6"/>
<linearGradient id="SVGID_5_" gradientUnits="userSpaceOnUse" x1="288.2" y1="1033.8" x2="288.2" y2="1033.8" gradientTransform="matrix(1 0 0 1 0 -874)">
	<stop  offset="0" style="stop-color:#AA367C"/>
	<stop  offset="1" style="stop-color:#4A2FBD"/>
</linearGradient>
<path class="st4" d="M288.2,159.8"/>
<linearGradient id="SVGID_6_" gradientUnits="userSpaceOnUse" x1="257.5" y1="1037.5" x2="257.5" y2="1037.5" gradientTransform="matrix(1 0 0 1 0 -874)">
	<stop  offset="0" style="stop-color:#AA367C"/>
	<stop  offset="1" style="stop-color:#4A2FBD"/>
</linearGradient>
<path class="st5" d="M257.5,163.5"/>
<rect x="32.3" y="79.9" class="st6" width="129.8" height="55.5"/>
<text transform="matrix(1 0 0 1 83.4409 113.4492)" class="st7 st8 st9">5</text>
</svg>
