<?xml version="1.0" encoding="utf-8"?>
<!-- Generator: Adobe Illustrator 25.0.1, SVG Export Plug-In . SVG Version: 6.00 Build 0)  -->
<svg version="1.1" id="Layer_1" xmlns="http://www.w3.org/2000/svg" xmlns:xlink="http://www.w3.org/1999/xlink" x="0px" y="0px"
	 viewBox="0 0 204 204" style="enable-background:new 0 0 204 204;" xml:space="preserve">
<style type="text/css">
	.st0{fill:url(#SVGID_1_);}
	.st1{fill:url(#SVGID_2_);}
	.st2{fill:none;}
	.st3{fill:#FFFFFF;}
	.st4{font-family:'ArtifaktElement-Bold';}
	.st5{font-size:48px;}
</style>
<linearGradient id="SVGID_1_" gradientUnits="userSpaceOnUse" x1="-1103.4286" y1="1480.531" x2="-862.5553" y2="1481.4156" gradientTransform="matrix(0.2243 -0.9745 0.9745 0.2243 -1110.9025 -1191.646)">
	<stop  offset="0" style="stop-color:#AA367C"/>
	<stop  offset="1" style="stop-color:#4A2FBD"/>
</linearGradient>
<path class="st0" d="M89.9,11.3C89.2,5.6,93.2,0.2,99,0c21.9-0.6,43.6,5.8,61.7,18.6c21,14.8,35.6,36.9,41,62
	c5.4,25.1,1.1,51.3-12,73.4s-34,38.4-58.6,45.7c-5.9,1.8-40.6,11.5-74.1-6.2c-24.2-12.8-38.5-35.2-41.2-39.7c0,0-0.1-0.2-9-15.2l0,0
	l0,0l0,0l0,0c0,0,1.2-9.3,5.8-11.4c5-2.4,13.9,3.9,13.9,3.9l0,0l0,0l0,0c0,0,15.6,31.6,39.8,43.5c18.3,9,39.3,10.7,58.8,4.9
	s36.1-18.8,46.5-36.3s13.8-38.3,9.5-58.2s-15.9-37.5-32.5-49.2C134.8,26.1,118.5,21,101.8,21C96,21.1,90.7,17.1,89.9,11.3z"/>
<linearGradient id="SVGID_2_" gradientUnits="userSpaceOnUse" x1="272.2" y1="86.1" x2="272.2" y2="86.1" gradientTransform="matrix(1 0 0 -1 0 206)">
	<stop  offset="0" style="stop-color:#AA367C"/>
	<stop  offset="1" style="stop-color:#4A2FBD"/>
</linearGradient>
<path class="st1" d="M272.2,119.9"/>
<rect x="72.7" y="75.9" class="st2" width="132.1" height="47.2"/>
<text transform="matrix(1 0 0 1 72.7007 111.4492)" class="st3 st4 st5">  6.5</text>
</svg>
