<?xml version="1.0" encoding="utf-8"?>
<!-- Generator: Adobe Illustrator 25.0.1, SVG Export Plug-In . SVG Version: 6.00 Build 0)  -->
<svg version="1.1" id="Layer_1" xmlns="http://www.w3.org/2000/svg" xmlns:xlink="http://www.w3.org/1999/xlink" x="0px" y="0px"
	 viewBox="0 0 204 204" style="enable-background:new 0 0 204 204;" xml:space="preserve">
<style type="text/css">
	.st0{fill:url(#SVGID_1_);}
	.st1{fill:url(#SVGID_2_);}
	.st2{fill:url(#SVGID_3_);}
	.st3{fill:url(#SVGID_4_);}
	.st4{fill:url(#SVGID_5_);}
	.st5{fill:url(#SVGID_6_);}
	.st6{fill:url(#SVGID_7_);}
	.st7{fill:url(#SVGID_8_);}
	.st8{fill:url(#SVGID_9_);}
	.st9{fill:url(#SVGID_10_);}
	.st10{fill:url(#SVGID_11_);}
	.st11{fill:none;}
	.st12{fill:#FFFFFF;}
	.st13{font-family:'ArtifaktElement-Bold';}
	.st14{font-size:48px;}
</style>
<linearGradient id="SVGID_1_" gradientUnits="userSpaceOnUse" x1="-9.5079" y1="68.232" x2="227.6154" y2="67.3612" gradientTransform="matrix(0.1676 -0.9858 -0.9858 -0.1676 186.7043 220.603)">
	<stop  offset="0" style="stop-color:#AA367C"/>
	<stop  offset="1" style="stop-color:#4A2FBD"/>
</linearGradient>
<path class="st0" d="M85.6,12.4C84.9,6.7,89.3,1.7,95,1.2c21.6-1.7,43.3,3.5,61.8,15c21.8,13.5,37.7,34.8,44.5,59.6
	c6.8,24.7,4,51.2-7.7,73.9c-1.9,3.7-22,41.4-55.9,49c-8.2,1.9-31.7,5.2-31.7,5.2c0,0,0,0,0,0c0,0-1.5-3.6-1.9-7.4
	c-0.6-6,1.9-12.8,1.9-12.8c0,0,0,0,0,0c-7.7,3.1-15.3,6.2-23,9.2c7.7,3.7,15.3,7.3,23,11c0-6.7,0-13.5,0-20.2
	c24.1-4.7,24.5-4.8,24.5-4.8c27.2-6.8,43.3-37,44.3-38.9c9.4-18.1,11.5-39,6.1-58.7c-5.4-19.6-18-36.5-35.3-47.2
	c-14.3-8.9-30.9-13-47.5-12C92.1,22.5,86.3,18.5,85.6,12.4z"/>
<linearGradient id="SVGID_2_" gradientUnits="userSpaceOnUse" x1="400" y1="127" x2="400" y2="127">
	<stop  offset="0" style="stop-color:#AA367C"/>
	<stop  offset="1" style="stop-color:#4A2FBD"/>
</linearGradient>
<path class="st1" d="M400,127"/>
<linearGradient id="SVGID_3_" gradientUnits="userSpaceOnUse" x1="399" y1="25" x2="399" y2="25">
	<stop  offset="0" style="stop-color:#AA367C"/>
	<stop  offset="1" style="stop-color:#4A2FBD"/>
</linearGradient>
<path class="st2" d="M399,25"/>
<linearGradient id="SVGID_4_" gradientUnits="userSpaceOnUse" x1="413" y1="-56" x2="413" y2="-56">
	<stop  offset="0" style="stop-color:#AA367C"/>
	<stop  offset="1" style="stop-color:#4A2FBD"/>
</linearGradient>
<path class="st3" d="M413-56"/>
<linearGradient id="SVGID_5_" gradientUnits="userSpaceOnUse" x1="246" y1="10" x2="246" y2="10">
	<stop  offset="0" style="stop-color:#AA367C"/>
	<stop  offset="1" style="stop-color:#4A2FBD"/>
</linearGradient>
<path class="st4" d="M246,10"/>
<linearGradient id="SVGID_6_" gradientUnits="userSpaceOnUse" x1="291" y1="10" x2="291" y2="10">
	<stop  offset="0" style="stop-color:#AA367C"/>
	<stop  offset="1" style="stop-color:#4A2FBD"/>
</linearGradient>
<path class="st5" d="M291,10"/>
<linearGradient id="SVGID_7_" gradientUnits="userSpaceOnUse" x1="293" y1="0" x2="293" y2="0">
	<stop  offset="0" style="stop-color:#AA367C"/>
	<stop  offset="1" style="stop-color:#4A2FBD"/>
</linearGradient>
<path class="st6" d="M293,0"/>
<linearGradient id="SVGID_8_" gradientUnits="userSpaceOnUse" x1="359" y1="129" x2="359" y2="129">
	<stop  offset="0" style="stop-color:#AA367C"/>
	<stop  offset="1" style="stop-color:#4A2FBD"/>
</linearGradient>
<path class="st7" d="M359,129"/>
<linearGradient id="SVGID_9_" gradientUnits="userSpaceOnUse" x1="301" y1="201" x2="301" y2="201">
	<stop  offset="0" style="stop-color:#AA367C"/>
	<stop  offset="1" style="stop-color:#4A2FBD"/>
</linearGradient>
<path class="st8" d="M301,201"/>
<linearGradient id="SVGID_10_" gradientUnits="userSpaceOnUse" x1="259" y1="176" x2="259" y2="176">
	<stop  offset="0" style="stop-color:#AA367C"/>
	<stop  offset="1" style="stop-color:#4A2FBD"/>
</linearGradient>
<path class="st9" d="M259,176"/>
<linearGradient id="SVGID_11_" gradientUnits="userSpaceOnUse" x1="302" y1="207" x2="302" y2="207">
	<stop  offset="0" style="stop-color:#AA367C"/>
	<stop  offset="1" style="stop-color:#4A2FBD"/>
</linearGradient>
<path class="st10" d="M302,207"/>
<text transform="matrix(1 0 0 1 960 540)" style="font-family:'MyriadPro-Regular'; font-size:12px;">https://rohit2408.github.io/Portfolio-Website/</text>
<path d="M-811-344"/>
<rect x="53" y="75" class="st11" width="95" height="51"/>
<text transform="matrix(1 0 0 1 86.7241 110.5195)" class="st12 st13 st14">5</text>
</svg>
